<?xml version="1.0" encoding="UTF-8"?>
<svg width="750px" height="1334px" viewBox="0 0 750 1334" version="1.1" xmlns="http://www.w3.org/2000/svg" xmlns:xlink="http://www.w3.org/1999/xlink" style="background: #FFFFFF;">
    <!-- Generator: Sketch 47.1 (45422) - http://www.bohemiancoding.com/sketch -->
    <title>2-Sign Up</title>
    <desc>Created with Sketch.</desc>
    <defs>
        <linearGradient x1="0%" y1="0%" x2="100%" y2="100%" id="linearGradient-1">
            <stop stop-color="#21D0FD" offset="0%"></stop>
            <stop stop-color="#EE4DB9" offset="100%"></stop>
        </linearGradient>
    </defs>
    <g id="do" stroke="none" stroke-width="1" fill="none" fill-rule="evenodd">
        <g id="2-Sign-Up">
            <g id="bg-+-overlay">
                <rect id="bg" fill="url(#linearGradient-1)" x="0" y="0" width="750" height="1334"></rect>
                <rect id="overlay" fill="#1D1D26" opacity="0.1" x="0" y="128" width="750" height="1076"></rect>
            </g>
            <text id="CONTINUE" font-family="Avenir-Book, Avenir" font-size="22" font-weight="normal" line-spacing="22" letter-spacing="2" fill="#FFFFFF">
                <tspan x="309.5" y="1280">CONTINUE</tspan>
            </text>
            <g id="birthday" transform="translate(59.000000, 1100.000000)" font-weight="normal" font-family="Avenir-Book, Avenir" fill="#FFFFFF">
                <text id="BIRTHDAY" opacity="0.5" font-size="20" line-spacing="20" letter-spacing="2">
                    <tspan x="1" y="28">BIRTHDAY</tspan>
                </text>
                <text id="May-25,-1983" font-size="28" line-spacing="28">
                    <tspan x="221" y="28">May 25, 1983</tspan>
                </text>
            </g>
            <g id="gender" transform="translate(59.000000, 981.000000)">
                <path d="M5.73097125e-13,76 L630,76" id="line" stroke="#FFFFFF" stroke-width="2" opacity="0.2" stroke-linecap="square"></path>
                <text id="GENDER" opacity="0.5" font-family="Avenir-Book, Avenir" font-size="20" font-weight="normal" line-spacing="20" letter-spacing="2" fill="#FFFFFF">
                    <tspan x="1" y="30">GENDER</tspan>
                </text>
                <g id="male" transform="translate(220.000000, 0.000000)" fill="#FFFFFF">
                    <text id="Male" font-family="Avenir-Book, Avenir" font-size="30" font-weight="normal" line-spacing="30">
                        <tspan x="40" y="30">Male</tspan>
                    </text>
                    <circle id="bg-4" cx="10" cy="19" r="10"></circle>
                </g>
                <g id="female" transform="translate(377.000000, 0.000000)" fill="#FFFFFF">
                    <circle id="bg-6" opacity="0.3" cx="10" cy="19" r="10"></circle>
                    <text id="Female" opacity="0.5" font-family="Avenir-Book, Avenir" font-size="30" font-weight="normal" line-spacing="30">
                        <tspan x="40" y="30">Female</tspan>
                    </text>
                </g>
            </g>
            <g id="password" transform="translate(59.000000, 874.000000)">
                <path d="M1,66 L631,66" id="line" stroke="#FFFFFF" stroke-width="2" opacity="0.2" stroke-linecap="square"></path>
                <text id="PASSWORD" opacity="0.5" font-family="Avenir-Book, Avenir" font-size="20" font-weight="normal" line-spacing="20" letter-spacing="2" fill="#FFFFFF">
                    <tspan x="1" y="20">PASSWORD</tspan>
                </text>
                <g id="••••••••" transform="translate(221.000000, 10.000000)" fill="#FFFFFF">
                    <circle id="-8" cx="145" cy="5" r="5"></circle>
                    <circle id="-7" cx="125" cy="5" r="5"></circle>
                    <circle id="6" cx="105" cy="5" r="5"></circle>
                    <circle id="5" cx="85" cy="5" r="5"></circle>
                    <circle id="4" cx="65" cy="5" r="5"></circle>
                    <circle id="3" cx="45" cy="5" r="5"></circle>
                    <circle id="2" cx="25" cy="5" r="5"></circle>
                    <circle id="1" cx="5" cy="5" r="5"></circle>
                </g>
            </g>
            <g id="email-copy" transform="translate(59.000000, 749.000000)">
                <path d="M1,74 L631,74" id="line" stroke="#FFFFFF" stroke-width="2" opacity="0.2" stroke-linecap="square"></path>
                <text id="EMAIL" opacity="0.5" font-family="Avenir-Book, Avenir" font-size="20" font-weight="normal" line-spacing="20" letter-spacing="2" fill="#FFFFFF">
                    <tspan x="1" y="28">EMAIL</tspan>
                </text>
                <text id="paul@invisionapp.com" font-family="Avenir-Book, Avenir" font-size="28" font-weight="normal" line-spacing="28" fill="#FFFFFF">
                    <tspan x="221" y="28">paul@invisionapp.com</tspan>
                </text>
            </g>
            <g id="name" transform="translate(59.000000, 632.000000)">
                <path d="M1,74 L631,74" id="line" stroke="#FFFFFF" stroke-width="2" opacity="0.2" stroke-linecap="square"></path>
                <text id="NAME" opacity="0.5" font-family="Avenir-Book, Avenir" font-size="20" font-weight="normal" line-spacing="20" letter-spacing="2" fill="#FFFFFF">
                    <tspan x="1" y="28">NAME</tspan>
                </text>
                <text id="Paul-Jensen" font-family="Avenir-Book, Avenir" font-size="28" font-weight="normal" line-spacing="28" fill="#FFFFFF">
                    <tspan x="221" y="28">Paul Jensen</tspan>
                </text>
            </g>
            <path d="M0,571 L750,571" id="line" stroke="#FFFFFF" stroke-width="2" opacity="0.2" stroke-linecap="square"></path>
            <g id="or-use-your-email-ad-+-email" transform="translate(175.000000, 455.000000)">
                <text id="or-use-your-email-ad" font-family="Avenir-Book, Avenir" font-size="28" font-weight="normal" line-spacing="28" fill="#FFFFFF">
                    <tspan x="80" y="32">or use your email address</tspan>
                </text>
                <g id="email">
                    <g id="group" transform="translate(5.000000, 8.000000)" stroke="#FFFFFF" stroke-width="2">
                        <rect id="shape" x="1" y="1" width="38" height="32" rx="4"></rect>
                        <polyline id="shape" points="37.7316164 1 20.3658836 18.5591525 3 1"></polyline>
                    </g>
                    <rect id="bounds" x="0" y="0" width="50" height="50"></rect>
                </g>
            </g>
            <g id="twitter-|-facebook" transform="translate(0.000000, 128.000000)">
                <path d="M0,261 L750,261" id="line" stroke="#FFFFFF" stroke-width="2" opacity="0.2" stroke-linecap="square"></path>
                <path d="M375,1.11577414e-14 L375,260" id="line" stroke="#FFFFFF" stroke-width="2" opacity="0.2" stroke-linecap="square"></path>
                <g id="facebook" transform="translate(474.000000, 60.000000)">
                    <g id="twitter" transform="translate(64.000000, 0.000000)">
                        <path d="M35,5 L35,12.5 L30,12.5 C28.5,12.5 27.5,13.5 27.5,15 L27.5,20 L35,20 L35,27.5 L27.5,27.5 L27.5,45 L20,45 L20,27.5 L15,27.5 L15,20 L20,20 L20,13.75 C20,9 24,5 28.75,5 L35,5 L35,5 Z" id="shape" fill="#FFFFFF"></path>
                        <rect id="bounds" x="0" y="0" width="50" height="49.3055556"></rect>
                    </g>
                    <text id="Connect-with" font-family="Avenir-Book, Avenir" font-size="28" font-weight="normal" letter-spacing="1" fill="#FFFFFF">
                        <tspan x="0.302" y="102">Connect with</tspan>
                        <tspan x="23.512" y="140">Facebook</tspan>
                    </text>
                </g>
                <g id="twitter" transform="translate(98.000000, 60.000000)">
                    <g transform="translate(64.000000, 0.000000)">
                        <g id="group" transform="translate(5.000000, 8.000000)" fill="#FFFFFF">
                            <path d="M36.5625,8.44985538 C36.25,23.1211189 27.1875,33.3272153 13.4375,33.9650963 C7.8125,34.2840368 3.75,32.3703937 0,30.1378101 C4.0625,30.7756912 9.375,29.1809886 12.1875,26.6294645 C8.125,26.310524 5.625,24.0779404 4.375,20.5695948 C5.625,20.8885353 6.875,20.5695948 7.8125,20.5695948 C4.0625,19.2938328 1.5625,17.0612492 1.25,11.958201 C2.1875,12.596082 3.4375,12.9150225 4.6875,12.9150225 C1.875,11.32032 -2.77555756e-15,5.26045027 2.1875,1.43316413 C6.25,5.89833129 11.25,9.72561742 19.375,10.3634984 C17.1875,1.43316413 29.0625,-3.35094354 33.75,2.70892618 C35.9375,2.38998567 37.5,1.43316413 39.0625,0.79528311 C38.4375,3.02786669 37.1875,4.30362873 35.625,5.57939078 C37.1875,5.26045027 38.75,4.94150976 40,4.30362873 C39.6875,5.89833129 38.125,7.17409333 36.5625,8.44985538 L36.5625,8.44985538 Z" id="shape"></path>
                        </g>
                        <rect id="bounds" x="0" y="0" width="50" height="49.3055556"></rect>
                    </g>
                    <text id="Connect-with" font-family="Avenir-Book, Avenir" font-size="28" font-weight="normal" letter-spacing="1" fill="#FFFFFF">
                        <tspan x="0.302" y="102">Connect with</tspan>
                        <tspan x="44.322" y="140">Twitte</tspan>
                        <tspan x="124.382" y="140">r</tspan>
                    </text>
                </g>
            </g>
            <g id="navbar">
                <rect id="bounds" fill="#00B9FF" x="0" y="0" width="750" height="128"></rect>
                <text id="SIGN-UP" font-family="Avenir-Book, Avenir" font-size="24" font-weight="normal" line-spacing="24" letter-spacing="2" fill="#FFFFFF">
                    <tspan x="321" y="90">SIGN UP</tspan>
                </text>
                <g id="close" opacity="0.6" transform="translate(25.000000, 58.000000)">
                    <g id="group" transform="translate(25.500000, 25.000000) rotate(-270.000000) translate(-25.500000, -25.000000) translate(8.000000, 7.000000)" stroke="#FFFFFF" stroke-width="2" stroke-linecap="round">
                        <path d="M34.5648344,35.1244089 L0.512517705,0.312998136" id="line"></path>
                        <path d="M0.512517705,35.1244089 L34.5648344,0.312998136" id="line"></path>
                    </g>
                    <rect id="bounds" x="0" y="0" width="50" height="50"></rect>
                </g>
            </g>
        </g>
    </g>
</svg>