<?xml version="1.0" encoding="UTF-8"?>
<svg width="750px" height="1334px" viewBox="0 0 750 1334" version="1.1" xmlns="http://www.w3.org/2000/svg" xmlns:xlink="http://www.w3.org/1999/xlink" style="background: #FFFFFF;">
    <!-- Generator: Sketch 47.1 (45422) - http://www.bohemiancoding.com/sketch -->
    <title>13-Navigation</title>
    <desc>Created with Sketch.</desc>
    <defs></defs>
    <g id="do" stroke="none" stroke-width="1" fill="none" fill-rule="evenodd">
        <g id="13-Navigation">
            <rect id="bg" fill="#00B9FF" x="0" y="-1" width="750" height="1334"></rect>
            <g id="settings" transform="translate(411.000000, 919.000000)">
                <circle id="bg" stroke="#FFFFFF" stroke-width="2" cx="80" cy="80" r="79"></circle>
                <g id="group" transform="translate(55.000000, 55.000000)">
                    <g id="settings">
                        <g id="group" transform="translate(4.000000, 4.000000)" stroke="#FFFFFF" stroke-width="2">
                            <path d="M36.9319452,21.1055276 C36.9319452,20.2613065 36.9319452,19.6281407 36.7177132,18.9949749 L41.2165849,15.4070352 C41.6450488,14.9849246 41.6450488,14.5628141 41.4308168,14.1407035 L37.1461772,6.75376884 C36.9319452,6.54271357 36.5034813,6.33165829 35.8607853,6.54271357 L30.5049857,8.65326633 C29.4338258,7.80904523 28.1484339,7.1758794 26.863042,6.54271357 L26.0061141,1.05527638 C26.2203461,0.422110553 25.5776501,0 25.1491862,0 L16.5799069,0 C16.1514429,0 15.508747,0.422110553 15.508747,0.844221106 L14.651819,6.54271357 C13.3664272,6.96482412 12.2952672,7.80904523 11.0098753,8.65326633 L5.86830777,6.54271357 C5.22561182,6.33165829 4.79714786,6.54271357 4.36868389,6.96482412 L0.0840442447,14.3517588 C-0.130187738,14.5628141 0.0840442447,15.1959799 0.51250821,15.6180905 L5.01137984,18.9949749 C5.01137984,19.6281407 4.79714786,20.2613065 4.79714786,21.1055276 C4.79714786,21.9497487 4.79714786,22.5829146 5.01137984,23.2160804 L0.51250821,26.8040201 C0.0840442447,27.2261307 0.0840442447,27.6482412 0.298276227,28.0703518 L4.58291588,35.4572864 C4.79714786,35.6683417 5.22561182,35.879397 5.86830777,35.6683417 L11.2241073,33.5577889 C12.2952672,34.4020101 13.5806591,35.0351759 14.866051,35.6683417 L15.722979,41.1557789 C15.722979,41.5778894 16.1514429,42 16.7941389,42 L25.3634182,42 C25.7918821,42 26.4345781,41.5778894 26.4345781,41.1557789 L27.291506,35.6683417 C28.5768979,35.0351759 29.8622898,34.4020101 30.9334497,33.5577889 L36.2892493,35.6683417 C36.7177132,35.879397 37.3604092,35.6683417 37.5746412,35.2462312 L41.8592808,27.8592965 C42.0735128,27.4371859 42.0735128,26.8040201 41.6450488,26.5929648 L36.7177132,23.2160804 C36.7177132,22.5829146 36.9319452,21.9497487 36.9319452,21.1055276 Z" id="shape"></path>
                            <circle id="shape" cx="21" cy="21" r="7"></circle>
                        </g>
                        <rect id="bounds" x="0" y="0" width="50" height="49.3055556"></rect>
                    </g>
                </g>
            </g>
            <g id="timeline" transform="translate(180.000000, 919.000000)">
                <circle id="bg" stroke="#FFFFFF" stroke-width="2" cx="80" cy="80" r="79"></circle>
                <g id="group" transform="translate(56.000000, 55.000000)">
                    <g id="timeline">
                        <g id="group" transform="translate(3.000000, 2.000000)" stroke="#FFFFFF" stroke-width="2" stroke-linecap="round">
                            <path d="M30.1328372,2.06473689 C37.890907,5.31533232 43.333093,12.9232868 43.333093,21.7941227 C43.333093,33.6200454 33.655907,43.2073505 21.7191163,43.2073505 C9.78232558,43.2073505 0.105139535,33.6200454 0.105139535,21.7941227 C0.105139535,12.0180336 6.71830405,3.77176381 15.7542602,1.20676643" id="shape"></path>
                            <polyline id="shape" points="29.4884419 13.9519915 29.4884419 0.227565024 43.3387209 0.227565024"></polyline>
                            <polyline id="shape" points="31.982187 24.4959256 19.4418605 24.4959256 19.4418605 10.2325581"></polyline>
                        </g>
                        <rect id="bounds" x="0" y="0" width="50" height="49.3055556"></rect>
                    </g>
                </g>
            </g>
            <g id="profile" transform="translate(411.000000, 689.000000)">
                <circle id="bg" stroke="#FFFFFF" stroke-width="2" cx="80" cy="80" r="79"></circle>
                <g id="group" transform="translate(56.000000, 55.000000)">
                    <g id="profile">
                        <g id="group" transform="translate(3.000000, 3.000000)" stroke="#FFFFFF" stroke-width="2">
                            <circle id="oval" cx="22" cy="22" r="21"></circle>
                            <path d="M21.975,23.9665552 C25.2586996,23.9665552 27.95,21.2720608 27.95,17.9832776 C27.95,14.6944943 25.2586996,12 21.975,12 C18.6913004,12 16,14.6944943 16,17.9832776 C16,21.2720608 18.6913004,23.9665552 21.975,23.9665552 Z" id="shape"></path>
                            <path d="M36.8100559,34.9531773 C35.5544259,31.6469699 28.3046801,29 22,29 C15.6953199,29 8.44557405,31.6469699 7.1899441,34.9531773 L36.8100559,34.9531773 Z" id="Path"></path>
                        </g>
                        <rect id="bounds" x="0" y="0" width="50" height="49.3055556"></rect>
                    </g>
                </g>
            </g>
            <g id="lists" transform="translate(179.500000, 689.000000)">
                <circle id="bg" stroke="#FFFFFF" stroke-width="2" cx="80" cy="80" r="79"></circle>
                <g id="group" transform="translate(56.000000, 55.000000)">
                    <g id="lists">
                        <g transform="translate(5.000000, 7.000000)" stroke="#FFFFFF" stroke-width="2">
                            <rect id="oval" x="1" y="1" width="6.5106383" height="6.83888889" rx="3.25531915"></rect>
                            <rect id="oval" x="1" y="15.06" width="6.5106383" height="6.83888889" rx="3.25531915"></rect>
                            <rect id="oval" x="1" y="29.1611111" width="6.5106383" height="6.83888889" rx="3.25531915"></rect>
                            <path d="M15.3191489,5.30333333 L39.1641284,5.30333333" id="line" stroke-linecap="round"></path>
                            <path d="M15.3191489,19.3633333 L39.1641284,19.3633333" id="line" stroke-linecap="round"></path>
                            <path d="M15.3191489,32.5805556 L39.1641284,32.5805556" id="line" stroke-linecap="round"></path>
                        </g>
                        <rect id="bounds" x="0" y="0" width="50" height="50"></rect>
                    </g>
                </g>
            </g>
            <g id="overview" transform="translate(411.000000, 459.000000)">
                <circle id="bg" stroke="#FFFFFF" stroke-width="2" cx="80" cy="80" r="79"></circle>
                <g id="group" transform="translate(56.000000, 55.000000)">
                    <g id="overview">
                        <g id="group" transform="translate(3.000000, 3.000000)" stroke="#FFFFFF" stroke-width="2">
                            <circle id="oval" cx="22" cy="22" r="21"></circle>
                            <polyline id="shape" points="44 23.1 22 23.1 22 1.1"></polyline>
                            <path d="M22,24.1 L35.8486466,36.9486466" id="line" stroke-linecap="square"></path>
                        </g>
                        <rect id="bounds" x="0" y="0" width="50" height="50"></rect>
                    </g>
                </g>
            </g>
            <g id="group" transform="translate(179.500000, 459.000000)">
                <circle id="bg" stroke="#FFFFFF" stroke-width="2" cx="80" cy="80" r="79"></circle>
                <g id="groups" transform="translate(56.000000, 55.000000)">
                    <rect id="bounds" x="0" y="0" width="50" height="50"></rect>
                    <g id="group" transform="translate(7.000000, 7.000000)" stroke="#FFFFFF" stroke-width="2">
                        <path d="M7,13 C10.3137085,13 13,10.3137085 13,7 C13,3.6862915 10.3137085,1 7,1 C3.6862915,1 1,3.6862915 1,7 C1,10.3137085 3.6862915,13 7,13 Z M29,13 C32.3137085,13 35,10.3137085 35,7 C35,3.6862915 32.3137085,1 29,1 C25.6862915,1 23,3.6862915 23,7 C23,10.3137085 25.6862915,13 29,13 Z M7,35 C10.3137085,35 13,32.3137085 13,29 C13,25.6862915 10.3137085,23 7,23 C3.6862915,23 1,25.6862915 1,29 C1,32.3137085 3.6862915,35 7,35 Z M29,35 C32.3137085,35 35,32.3137085 35,29 C35,25.6862915 32.3137085,23 29,23 C25.6862915,23 23,25.6862915 23,29 C23,32.3137085 25.6862915,35 29,35 Z" id="shape"></path>
                    </g>
                </g>
            </g>
            <g id="calendar" transform="translate(411.000000, 229.000000)">
                <circle id="bg" stroke="#FFFFFF" stroke-width="2" cx="80" cy="80" r="79"></circle>
                <g transform="translate(56.000000, 55.000000)">
                    <g id="group" transform="translate(3.000000, 3.000000)" stroke="#FFFFFF" stroke-width="2">
                        <rect id="shape" x="1" y="1" width="42" height="42" rx="4"></rect>
                        <path d="M9.48148148,10.2777778 L34.2518519,10.2777778" id="line" stroke-linecap="square"></path>
                        <rect id="oval" x="8.63333333" y="19" width="5" height="5" rx="2.5"></rect>
                        <rect id="oval" x="19.6333333" y="19" width="5" height="5" rx="2.5"></rect>
                        <rect id="oval" x="30.6333333" y="19" width="5" height="5" rx="2.5"></rect>
                        <rect id="oval" x="8.63333333" y="29.9166667" width="5" height="5" rx="2.5"></rect>
                        <rect id="oval" x="19.6333333" y="29.9166667" width="5" height="5" rx="2.5"></rect>
                        <rect id="oval" x="31" y="29.9166667" width="5" height="5" rx="2.5"></rect>
                    </g>
                    <rect id="bounds" x="0" y="0" width="50" height="50"></rect>
                </g>
            </g>
            <g id="home" transform="translate(182.000000, 229.000000)">
                <circle id="bg" fill="#D667CD" cx="80" cy="80" r="80"></circle>
                <g transform="translate(55.000000, 55.000000)">
                    <g id="group" transform="translate(1.000000, 4.000000)" stroke="#FFFFFF" stroke-width="2">
                        <path d="M42,12 L42,38.0007252 C42,40.2094637 40.2147544,42 38.0098214,42 L9.99017859,42 C7.7864638,42 6,40.2132053 6,38.0007252 L6,12" id="shape"></path>
                        <path d="M19,33 L29,33" id="line" stroke-linecap="round"></path>
                        <polyline id="shape" stroke-linecap="round" stroke-linejoin="round" points="0 17 24 0 48 17"></polyline>
                    </g>
                    <rect id="bounds" x="0" y="0" width="50" height="50"></rect>
                </g>
            </g>
            <g id="logout" transform="translate(0.000000, 1214.000000)">
                <rect id="bg" fill="#D667CD" x="0" y="0" width="750" height="120"></rect>
                <text id="LOGOUT" font-family="Avenir-Book, Avenir" font-size="22" font-weight="normal" line-spacing="22" letter-spacing="2" fill="#FFFFFF">
                    <tspan x="322" y="71">LOGOUT</tspan>
                </text>
            </g>
            <g id="navbar">
                <rect id="bounds" x="0" y="0" width="750" height="128"></rect>
                <g id="more" transform="translate(673.000000, 58.000000)">
                    <g id="group" transform="translate(2.000000, 20.000000)" stroke-width="2" stroke="#FFFFFF">
                        <circle id="oval" cx="40.1214742" cy="5.5" r="4.5"></circle>
                        <circle id="oval" cx="23.04" cy="5.5" r="4.5"></circle>
                        <circle id="oval" cx="6.12147421" cy="5.5" r="4.5"></circle>
                    </g>
                    <rect id="bounds" x="0" y="0" width="50" height="50"></rect>
                </g>
                <g id="close" transform="translate(25.000000, 58.000000)">
                    <g id="group" transform="translate(25.500000, 25.000000) rotate(-270.000000) translate(-25.500000, -25.000000) translate(8.000000, 7.000000)" stroke="#FFFFFF" stroke-width="2" stroke-linecap="round">
                        <path d="M34.5648344,35.1244089 L0.512517705,0.312998136" id="line"></path>
                        <path d="M0.512517705,35.1244089 L34.5648344,0.312998136" id="line"></path>
                    </g>
                    <rect id="bounds" x="0" y="0" width="50" height="50"></rect>
                </g>
            </g>
        </g>
    </g>
</svg>